<?xml version="1.0" encoding="UTF-8"?>
<svg version="1.1" xmlns="http://www.w3.org/2000/svg" width="96" height="96">
<path d="M0 0 C4.62 0 9.24 0 14 0 C14.66 1.32 15.32 2.64 16 4 C18.0335948 5.26804566 18.0335948 5.26804566 20 6 C20 5.34 20 4.68 20 4 C19.34 4 18.68 4 18 4 C18 2.68 18 1.36 18 0 C35.16 0 52.32 0 70 0 C70 1.65 70 3.3 70 5 C71.70840281 3.36587557 72.93453047 2.13093906 74 0 C78.62 0 83.24 0 88 0 C88.48812699 11.3489526 87.67766085 19.97459429 80.25 28.9375 C75.9020043 33.47172271 71.38061848 36.03410901 65.375 37.75 C62.10290128 39.47215722 60.68834016 41.98949524 58.625 45.00390625 C56.91633952 47.10276564 55.48689998 47.98809779 53.125 49.25 C51.28295918 50.29995104 51.28295918 50.29995104 50 52 C49.28228424 56.07070847 49.31977712 59.9246824 50 64 C50.99 64.99 50.99 64.99 52 66 C52 67.32 52 68.64 52 70 C54.97 70 57.94 70 61 70 C61.33 71.32 61.66 72.64 62 74 C63.32 74.33 64.64 74.66 66 75 C66.495 79.455 66.495 79.455 67 84 C69.31 84 71.62 84 74 84 C74 84.66 74 85.32 74 86 C54.2 86 34.4 86 14 86 C14 85.34 14 84.68 14 84 C16.64 84 19.28 84 22 84 C22 81.03 22 78.06 22 75 C23.98 74.505 23.98 74.505 26 74 C26.33 72.68 26.66 71.36 27 70 C29.97 70 32.94 70 36 70 C36.33 68.35 36.66 66.7 37 65 C37.99 64.67 38.98 64.34 40 64 C40 62.02 40 60.04 40 58 C39.34 58 38.68 58 38 58 C38 56.68 38 55.36 38 54 C38.66 54 39.32 54 40 54 C40 53.34 40 52.68 40 52 C39.319375 51.79375 38.63875 51.5875 37.9375 51.375 C32.86747973 49.00179902 29.00168803 45.72704832 26.1875 40.875 C23.80238376 37.74027579 22.82997966 37.34301023 19.25 36.0625 C11.59462894 33.30025271 6.79652528 29.05650903 3.0625 21.8125 C-0.38231199 14.39739623 -0.08161519 8.16151874 0 0 Z M5 4 C4.32204165 11.62703148 6.78186432 18.52492077 10.875 24.9375 C13.41499369 27.40278799 15.90042798 29.28534314 19 31 C19.99 30.67 20.98 30.34 22 30 C21.34 24.06 20.68 18.12 20 12 C20.99 12 21.98 12 23 12 C23 11.34 23 10.68 23 10 C22.38511719 9.96261719 21.77023438 9.92523437 21.13671875 9.88671875 C20.32847656 9.82097656 19.52023438 9.75523438 18.6875 9.6875 C17.88699219 9.62949219 17.08648437 9.57148438 16.26171875 9.51171875 C13.59936152 8.90935468 12.68806452 8.10358809 11 6 C10.67 5.34 10.34 4.68 10 4 C8.35 4 6.7 4 5 4 Z M78 4 C77.566875 4.9590625 77.566875 4.9590625 77.125 5.9375 C76 8 76 8 74 9 C72.46331135 9.22467831 70.92031946 9.40796805 69.375 9.5625 C68.14910156 9.68818359 68.14910156 9.68818359 66.8984375 9.81640625 C65.95871094 9.90728516 65.95871094 9.90728516 65 10 C65 10.66 65 11.32 65 12 C65.99 12 66.98 12 68 12 C67.34 18.27 66.68 24.54 66 31 C71.800348 29.549913 75.46872984 27.18199971 78.75 22.1875 C82.17910554 16.23342607 83.28022937 10.86561949 83 4 C81.35 4 79.7 4 78 4 Z M29 7 C28.54726206 16.31885595 28.42257633 24.54680154 33 33 C33.66 33.33 34.32 33.66 35 34 C34.86722656 33.46375 34.73445313 32.9275 34.59765625 32.375 C32.77830798 24.30081205 32.38849511 16.24018566 32 8 C31.01 7.67 30.02 7.34 29 7 Z M39 76 C39 78.64 39 81.28 39 84 C42.63 84 46.26 84 50 84 C50 81.36 50 78.72 50 76 C46.37 76 42.74 76 39 76 Z " fill="#CE8945" transform="translate(4,10)"/>
</svg>
